  0
SECTION
  2
HEADER
  9
$ACADVER
  1
AC1009
  9
$DWGCODEPAGE
  3
ansi_1252
  9
$INSBASE
 10
0.0
 20
0.0
 30
0.0
  9
$EXTMIN
 10
25.96331951459011
 20
119.5959671742506
 30
0.0
  9
$EXTMAX
 10
44.97914875228405
 20
682.0000000000003
 30
0.0
  9
$LIMMIN
 10
0.0
 20
0.0
  9
$LIMMAX
 10
12.0
 20
9.0
  9
$ORTHOMODE
 70
     0
  9
$REGENMODE
 70
     1
  9
$FILLMODE
 70
     1
  9
$QTEXTMODE
 70
     0
  9
$MIRRTEXT
 70
     1
  9
$DRAGMODE
 70
     2
  9
$LTSCALE
 40
1.0
  9
$OSMODE
 70
    37
  9
$ATTMODE
 70
     1
  9
$TEXTSIZE
 40
0.2
  9
$TRACEWID
 40
0.05
  9
$TEXTSTYLE
  7
STANDARD
  9
$CLAYER
  8
0
  9
$CELTYPE
  6
BYLAYER
  9
$CECOLOR
 62
   256
  9
$DIMSCALE
 40
1.0
  9
$DIMASZ
 40
0.18
  9
$DIMEXO
 40
0.0625
  9
$DIMDLI
 40
0.38
  9
$DIMRND
 40
0.0
  9
$DIMDLE
 40
0.0
  9
$DIMEXE
 40
0.18
  9
$DIMTP
 40
0.0
  9
$DIMTM
 40
0.0
  9
$DIMTXT
 40
0.18
  9
$DIMCEN
 40
0.09
  9
$DIMTSZ
 40
0.0
  9
$DIMTOL
 70
     0
  9
$DIMLIM
 70
     0
  9
$DIMTIH
 70
     1
  9
$DIMTOH
 70
     1
  9
$DIMSE1
 70
     0
  9
$DIMSE2
 70
     0
  9
$DIMTAD
 70
     0
  9
$DIMZIN
 70
     0
  9
$DIMBLK
  1

  9
$DIMASO
 70
     1
  9
$DIMSHO
 70
     1
  9
$DIMPOST
  1

  9
$DIMAPOST
  1

  9
$DIMALT
 70
     0
  9
$DIMALTD
 70
     2
  9
$DIMALTF
 40
25.4
  9
$DIMLFAC
 40
1.0
  9
$DIMTOFL
 70
     0
  9
$DIMTVP
 40
0.0
  9
$DIMTIX
 70
     0
  9
$DIMSOXD
 70
     0
  9
$DIMSAH
 70
     0
  9
$DIMBLK1
  1

  9
$DIMBLK2
  1

  9
$DIMSTYLE
  2
STANDARD
  9
$DIMCLRD
 70
     0
  9
$DIMCLRE
 70
     0
  9
$DIMCLRT
 70
     0
  9
$DIMTFAC
 40
1.0
  9
$DIMGAP
 40
0.09
  9
$LUNITS
 70
     2
  9
$LUPREC
 70
     4
  9
$SKETCHINC
 40
0.1
  9
$FILLETRAD
 40
0.5
  9
$AUNITS
 70
     0
  9
$AUPREC
 70
     0
  9
$MENU
  1
.
  9
$ELEVATION
 40
0.0
  9
$PELEVATION
 40
0.0
  9
$THICKNESS
 40
0.0
  9
$LIMCHECK
 70
     0
  9
$CHAMFERA
 40
0.0
  9
$CHAMFERB
 40
0.0
  9
$SKPOLY
 70
     0
  9
$TDCREATE
 40
2454910.5
  9
$TDUPDATE
 40
2460298.603692628
  9
$TDINDWG
 40
0.0000000116
  9
$TDUSRTIMER
 40
0.0000000116
  9
$USRTIMER
 70
     1
  9
$ANGBASE
 50
0.0
  9
$ANGDIR
 70
     0
  9
$PDMODE
 70
     0
  9
$PDSIZE
 40
0.0
  9
$PLINEWID
 40
0.0
  9
$COORDS
 70
     1
  9
$SPLFRAME
 70
     0
  9
$SPLINETYPE
 70
     6
  9
$SPLINESEGS
 70
     8
  9
$ATTDIA
 70
     0
  9
$ATTREQ
 70
     1
  9
$HANDLING
 70
     1
  9
$HANDSEED
  5
107
  9
$SURFTAB1
 70
     6
  9
$SURFTAB2
 70
     6
  9
$SURFTYPE
 70
     6
  9
$SURFU
 70
     6
  9
$SURFV
 70
     6
  9
$UCSNAME
  2

  9
$UCSORG
 10
0.0
 20
0.0
 30
0.0
  9
$UCSXDIR
 10
1.0
 20
0.0
 30
0.0
  9
$UCSYDIR
 10
0.0
 20
1.0
 30
0.0
  9
$PUCSNAME
  2

  9
$PUCSORG
 10
0.0
 20
0.0
 30
0.0
  9
$PUCSXDIR
 10
1.0
 20
0.0
 30
0.0
  9
$PUCSYDIR
 10
0.0
 20
1.0
 30
0.0
  9
$USERI1
 70
     0
  9
$USERI2
 70
     0
  9
$USERI3
 70
     0
  9
$USERI4
 70
     0
  9
$USERI5
 70
     0
  9
$USERR1
 40
0.0
  9
$USERR2
 40
0.0
  9
$USERR3
 40
0.0
  9
$USERR4
 40
0.0
  9
$USERR5
 40
0.0
  9
$WORLDVIEW
 70
     1
  9
$SHADEDGE
 70
     3
  9
$SHADEDIF
 70
    70
  9
$TILEMODE
 70
     1
  9
$MAXACTVP
 70
    64
  9
$PLIMCHECK
 70
     0
  9
$PEXTMIN
 10
1.000000000000000E+20
 20
1.000000000000000E+20
 30
1.000000000000000E+20
  9
$PEXTMAX
 10
-1.000000000000000E+20
 20
-1.000000000000000E+20
 30
-1.000000000000000E+20
  9
$PLIMMIN
 10
0.0
 20
0.0
  9
$PLIMMAX
 10
12.0
 20
9.0
  9
$UNITMODE
 70
     0
  9
$VISRETAIN
 70
     1
  9
$PLINEGEN
 70
     0
  9
$PSLTSCALE
 70
     1
  0
ENDSEC
  0
SECTION
  2
TABLES
  0
TABLE
  2
VPORT
 70
     1
  0
VPORT
  2
*ACTIVE
 70
     0
 10
0.0
 20
0.0
 11
1.0
 21
1.0
 12
10.42990654205607
 22
4.5
 13
0.0
 23
0.0
 14
0.5
 24
0.5
 15
0.5
 25
0.5
 16
0.0
 26
0.0
 36
1.0
 17
0.0
 27
0.0
 37
0.0
 40
9.0
 41
1.972972972850329
 42
50.0
 43
0.0
 44
0.0
 50
0.0
 51
0.0
 71
     0
 72
   100
 73
     1
 74
     3
 75
     0
 76
     0
 77
     0
 78
     0
  0
ENDTAB
  0
TABLE
  2
LTYPE
 70
     2
  0
LTYPE
  2
CONTINUOUS
 70
     0
  3
Solid line
 72
    65
 73
     0
 40
0.0
  0
LTYPE
  2
CONTINUOUS2
 70
     0
  3
Solid Line
 72
    65
 73
     0
 40
0.0
  0
ENDTAB
  0
TABLE
  2
LAYER
 70
     2
  0
LAYER
  2
0
 70
     0
 62
     7
  6
CONTINUOUS
  0
LAYER
  2
LAYER_1
 70
     0
 62
    18
  6
CONTINUOUS
  0
ENDTAB
  0
TABLE
  2
STYLE
 70
     1
  0
STYLE
  2
STANDARD
 70
     0
 40
0.0
 41
1.0
 50
0.0
 71
     0
 42
0.2
  3
txt
  4

  0
ENDTAB
  0
TABLE
  2
VIEW
 70
     0
  0
ENDTAB
  0
TABLE
  2
UCS
 70
     0
  0
ENDTAB
  0
TABLE
  2
APPID
 70
     1
  0
APPID
  2
ACAD
 70
     0
  0
ENDTAB
  0
TABLE
  2
DIMSTYLE
 70
     1
  0
DIMSTYLE
  2
STANDARD
 70
     0
  3

  4

  5

  6

  7

 40
1.0
 41
0.18
 42
0.0625
 43
0.38
 44
0.18
 45
0.0
 46
0.0
 47
0.0
 48
0.0
140
0.18
141
0.09
142
0.0
143
25.4
144
1.0
145
0.0
146
1.0
147
0.09
 71
     0
 72
     0
 73
     1
 74
     1
 75
     0
 76
     0
 77
     0
 78
     0
170
     0
171
     2
172
     0
173
     0
174
     0
175
     0
176
     0
177
     0
178
     0
  0
ENDTAB
  0
ENDSEC
  0
SECTION
  2
BLOCKS
  0
BLOCK
  8
0
  2
$MODEL_SPACE
 70
     0
 10
0.0
 20
0.0
 30
0.0
  3
$MODEL_SPACE
  1

  0
ENDBLK
  5
21
  8
0
  0
BLOCK
 67
     1
  8
0
  2
$PAPER_SPACE
 70
     0
 10
0.0
 20
0.0
 30
0.0
  3
$PAPER_SPACE
  1

  0
ENDBLK
  5
1D
 67
     1
  8
0
  0
ENDSEC
  0
SECTION
  2
ENTITIES
  0
POLYLINE
  5
70
  8
LAYER_1
 66
     1
 10
0.0
 20
0.0
 30
0.0
  0
VERTEX
  5
78
  8
LAYER_1
 10
25.96331951459011
 20
682.0000000000003
 30
0.0
  0
VERTEX
  5
79
  8
LAYER_1
 10
29.4594552711753
 20
662.0814298359278
 30
0.0
 42
-0.2830924021484693
  0
VERTEX
  5
7A
  8
LAYER_1
 10
34.99987147344771
 20
653.1815290623697
 30
0.0
  0
VERTEX
  5
7B
  8
LAYER_1
 10
35.16744255416961
 20
652.9643608762999
 30
0.0
  0
VERTEX
  5
7C
  8
LAYER_1
 10
35.61326408713012
 20
652.3434792122498
 30
0.0
  0
VERTEX
  5
7D
  8
LAYER_1
 10
36.03165698299654
 20
651.7172545159628
 30
0.0
  0
VERTEX
  5
7E
  8
LAYER_1
 10
36.42320568631931
 20
651.0872034178537
 30
0.0
  0
VERTEX
  5
7F
  8
LAYER_1
 10
36.78859096194356
 20
650.4547424590037
 30
0.0
  0
VERTEX
  5
80
  8
LAYER_1
 10
37.12857189903298
 20
649.8211830784567
 30
0.0
  0
VERTEX
  5
81
  8
LAYER_1
 10
37.44396847356438
 20
649.1877297940537
 30
0.0
  0
VERTEX
  5
82
  8
LAYER_1
 10
37.73564519101456
 20
648.5554810667836
 30
0.0
  0
VERTEX
  5
83
  8
LAYER_1
 10
38.00449616756987
 20
647.9254323125606
 30
0.0
  0
VERTEX
  5
84
  8
LAYER_1
 10
38.25143187016465
 20
647.2984805166525
 30
0.0
  0
VERTEX
  5
85
  8
LAYER_1
 10
38.47736760576345
 20
646.6754299495751
 30
0.0
  0
VERTEX
  5
86
  8
LAYER_1
 10
38.68321375429969
 20
646.0569985246093
 30
0.0
  0
VERTEX
  5
87
  8
LAYER_1
 10
38.86986766147129
 20
645.4438244006151
 30
0.0
  0
VERTEX
  5
88
  8
LAYER_1
 10
39.03820705210455
 20
644.8364724987878
 30
0.0
  0
VERTEX
  5
89
  8
LAYER_1
 10
39.1890847928853
 20
644.2354406507611
 30
0.0
  0
VERTEX
  5
8A
  8
LAYER_1
 10
39.32332480546097
 20
643.6411651699982
 30
0.0
  0
VERTEX
  5
8B
  8
LAYER_1
 10
39.44171893148609
 20
643.0540256475888
 30
0.0
  0
VERTEX
  5
8C
  8
LAYER_1
 10
39.54502453931832
 20
642.4743488362164
 30
0.0
  0
VERTEX
  5
8D
  8
LAYER_1
 10
39.63396266968198
 20
641.9024114833819
 30
0.0
  0
VERTEX
  5
8E
  8
LAYER_1
 10
39.7160383603885
 20
641.2873175356617
 30
0.0
  0
VERTEX
  5
8F
  8
LAYER_1
 10
39.82258140168761
 20
640.2376278984184
 30
0.0
  0
VERTEX
  5
90
  8
LAYER_1
 10
39.88707319484861
 20
639.1670773179994
 30
0.0
  0
VERTEX
  5
91
  8
LAYER_1
 10
39.90812162251775
 20
638.1207703968838
 30
0.0
  0
VERTEX
  5
92
  8
LAYER_1
 10
39.88552059936443
 20
637.0630194469699
 30
0.0
  0
VERTEX
  5
93
  8
LAYER_1
 10
39.81925287202061
 20
636.0276858984446
 30
0.0
  0
VERTEX
  5
94
  8
LAYER_1
 10
39.76083011752421
 20
635.4206116115132
 30
0.0
  0
VERTEX
  5
95
  8
LAYER_1
 10
39.69454970383464
 20
634.8595486486545
 30
0.0
  0
VERTEX
  5
96
  8
LAYER_1
 10
39.61487103657328
 20
634.2920004233533
 30
0.0
  0
VERTEX
  5
97
  8
LAYER_1
 10
39.52127605284431
 20
633.7181050306981
 30
0.0
  0
VERTEX
  5
98
  8
LAYER_1
 10
39.41321169821219
 20
633.1380513155996
 30
0.0
  0
VERTEX
  5
99
  8
LAYER_1
 10
39.29009246766032
 20
632.5520780060492
 30
0.0
  0
VERTEX
  5
9A
  8
LAYER_1
 10
39.15130290884122
 20
631.96047391106
 30
0.0
  0
VERTEX
  5
9B
  8
LAYER_1
 10
38.99620025964896
 20
631.3635790290082
 30
0.0
  0
VERTEX
  5
9C
  8
LAYER_1
 10
38.82411738454425
 20
630.7617864518261
 30
0.0
  0
VERTEX
  5
9D
  8
LAYER_1
 10
38.63436615764704
 20
630.1555449210882
 30
0.0
  0
VERTEX
  5
9E
  8
LAYER_1
 10
38.42624143468356
 20
629.5453619034242
 30
0.0
  0
VERTEX
  5
9F
  8
LAYER_1
 10
38.19902574480693
 20
628.9318070350118
 30
0.0
  0
VERTEX
  5
A0
  8
LAYER_1
 10
37.95199481612599
 20
628.3155157572583
 30
0.0
  0
VERTEX
  5
A1
  8
LAYER_1
 10
37.68442403019071
 20
627.6971929468255
 30
0.0
  0
VERTEX
  5
A2
  8
LAYER_1
 10
37.39559587193889
 20
627.0776163137216
 30
0.0
  0
VERTEX
  5
A3
  8
LAYER_1
 10
37.08480840294487
 20
626.4576393097886
 30
0.0
  0
VERTEX
  5
A4
  8
LAYER_1
 10
36.75138474035975
 20
625.8381932706243
 30
0.0
  0
VERTEX
  5
A5
  8
LAYER_1
 10
36.39468345756723
 20
625.2202884798207
 30
0.0
  0
VERTEX
  5
A6
  8
LAYER_1
 10
36.01410976678198
 20
624.6050138625815
 30
0.0
  0
VERTEX
  5
A7
  8
LAYER_1
 10
35.60912724840819
 20
623.9935349880752
 30
0.0
  0
VERTEX
  5
A8
  8
LAYER_1
 10
35.17926982588779
 20
623.3870901165647
 30
0.0
  0
VERTEX
  5
A9
  8
LAYER_1
 10
35.03401293999016
 20
623.1955576441513
 30
0.0
 42
-0.110705934060583
  0
VERTEX
  5
AA
  8
LAYER_1
 10
34.10489557672845
 20
618.9207399937947
 30
0.0
  0
VERTEX
  5
AB
  8
LAYER_1
 10
34.21883415414714
 20
618.7950811590683
 30
0.0
  0
VERTEX
  5
AC
  8
LAYER_1
 10
34.55426993830133
 20
618.4187759507031
 30
0.0
  0
VERTEX
  5
AD
  8
LAYER_1
 10
35.10948379285128
 20
617.7196828367396
 30
0.0
  0
VERTEX
  5
AE
  8
LAYER_1
 10
35.72819583925934
 20
616.805668613199
 30
0.0
  0
VERTEX
  5
AF
  8
LAYER_1
 10
36.28612818082479
 20
615.7766839754704
 30
0.0
  0
VERTEX
  5
B0
  8
LAYER_1
 10
36.64497267200954
 20
614.9455744594216
 30
0.0
  0
VERTEX
  5
B1
  8
LAYER_1
 10
36.9229177539313
 20
614.1576253062308
 30
0.0
  0
VERTEX
  5
B2
  8
LAYER_1
 10
37.15848777764
 20
613.2853679482507
 30
0.0
  0
VERTEX
  5
B3
  8
LAYER_1
 10
37.33345002517137
 20
612.3334488350522
 30
0.0
  0
VERTEX
  5
B4
  8
LAYER_1
 10
37.42931066789677
 20
611.3133582443293
 30
0.0
  0
VERTEX
  5
B5
  8
LAYER_1
 10
37.42961445034864
 20
610.8122698570897
 30
0.0
  0
VERTEX
  5
B6
  8
LAYER_1
 10
44.97914875228405
 20
181.2040315095524
 30
0.0
  0
VERTEX
  5
B7
  8
LAYER_1
 10
44.96290212043345
 20
180.5510293730109
 30
0.0
  0
VERTEX
  5
B8
  8
LAYER_1
 10
44.9095019852077
 20
179.8527743143172
 30
0.0
  0
VERTEX
  5
B9
  8
LAYER_1
 10
44.81760519184466
 20
179.1478761694626
 30
0.0
  0
VERTEX
  5
BA
  8
LAYER_1
 10
44.68570682215256
 20
178.4411732338993
 30
0.0
  0
VERTEX
  5
BB
  8
LAYER_1
 10
44.51323049858285
 20
177.7382294342999
 30
0.0
  0
VERTEX
  5
BC
  8
LAYER_1
 10
44.30070547078242
 20
177.0450788002637
 30
0.0
  0
VERTEX
  5
BD
  8
LAYER_1
 10
44.04986031421521
 20
176.3678999353164
 30
0.0
  0
VERTEX
  5
BE
  8
LAYER_1
 10
43.76361108040484
 20
175.7126565185266
 30
0.0
  0
VERTEX
  5
BF
  8
LAYER_1
 10
43.44593895198994
 20
175.0847492328774
 30
0.0
  0
VERTEX
  5
C0
  8
LAYER_1
 10
43.03694859871797
 20
174.376668851498
 30
0.0
  0
VERTEX
  5
C1
  8
LAYER_1
 10
42.37041692615492
 20
173.4097545407836
 30
0.0
  0
VERTEX
  5
C2
  8
LAYER_1
 10
41.58397218280811
 20
172.481672933085
 30
0.0
  0
VERTEX
  5
C3
  8
LAYER_1
 10
40.79780726770196
 20
171.7059498489306
 30
0.0
  0
VERTEX
  5
C4
  8
LAYER_1
 10
40.04431872574401
 20
171.0699260181119
 30
0.0
  0
VERTEX
  5
C5
  8
LAYER_1
 10
39.34677791001513
 20
170.5557212362808
 30
0.0
  0
VERTEX
  5
C6
  8
LAYER_1
 10
38.72101807643548
 20
170.1447154231946
 30
0.0
  0
VERTEX
  5
C7
  8
LAYER_1
 10
38.13516142334902
 20
169.7947157258384
 30
0.0
  0
VERTEX
  5
C8
  8
LAYER_1
 10
37.42945201600469
 20
169.4118225707011
 30
0.0
  0
VERTEX
  5
C9
  8
LAYER_1
 10
36.904876192144
 20
169.138645114821
 30
0.0
  0
VERTEX
  5
CA
  8
LAYER_1
 10
36.11643562983665
 20
168.7330165914098
 30
0.0
  0
VERTEX
  5
CB
  8
LAYER_1
 10
36.33857095121721
 20
168.3847979859156
 30
0.0
  0
VERTEX
  5
CC
  8
LAYER_1
 10
36.89591693487137
 20
167.4661600667232
 30
0.0
  0
VERTEX
  5
CD
  8
LAYER_1
 10
37.42919082338722
 20
166.5417846921437
 30
0.0
  0
VERTEX
  5
CE
  8
LAYER_1
 10
37.93819511031643
 20
165.6129673507576
 30
0.0
  0
VERTEX
  5
CF
  8
LAYER_1
 10
38.42256776813156
 20
164.6807593009507
 30
0.0
  0
VERTEX
  5
D0
  8
LAYER_1
 10
38.8818200962321
 20
163.7458405431307
 30
0.0
  0
VERTEX
  5
D1
  8
LAYER_1
 10
39.315359218205
 20
162.8083522140741
 30
0.0
  0
VERTEX
  5
D2
  8
LAYER_1
 10
39.72249120624087
 20
161.8676686810059
 30
0.0
  0
VERTEX
  5
D3
  8
LAYER_1
 10
40.08663254349494
 20
160.9613117248791
 30
0.0
  0
VERTEX
  5
D4
  8
LAYER_1
 10
40.40599886652808
 20
160.1171812108769
 30
0.0
  0
VERTEX
  5
D5
  8
LAYER_1
 10
40.70871304469233
 20
159.2808687914476
 30
0.0
  0
VERTEX
  5
D6
  8
LAYER_1
 10
41.00700064985608
 20
158.4107053209373
 30
0.0
  0
VERTEX
  5
D7
  8
LAYER_1
 10
41.29749307585894
 20
157.505981264705
 30
0.0
  0
VERTEX
  5
D8
  8
LAYER_1
 10
41.57667452603425
 20
156.5663141785735
 30
0.0
  0
VERTEX
  5
D9
  8
LAYER_1
 10
41.84095821284438
 20
155.5916606277519
 30
0.0
  0
VERTEX
  5
DA
  8
LAYER_1
 10
42.08677032256651
 20
154.5823106268545
 30
0.0
  0
VERTEX
  5
DB
  8
LAYER_1
 10
42.31063651384733
 20
153.5388614713834
 30
0.0
  0
VERTEX
  5
DC
  8
LAYER_1
 10
42.50926458579607
 20
152.4621700389312
 30
0.0
  0
VERTEX
  5
DD
  8
LAYER_1
 10
42.67961661570581
 20
151.3532852849703
 30
0.0
  0
VERTEX
  5
DE
  8
LAYER_1
 10
42.81896452529816
 20
150.213365302584
 30
0.0
  0
VERTEX
  5
DF
  8
LAYER_1
 10
42.92492466815565
 20
149.0435854407453
 30
0.0
  0
VERTEX
  5
E0
  8
LAYER_1
 10
42.99546937730491
 20
147.8450451698284
 30
0.0
  0
VERTEX
  5
E1
  8
LAYER_1
 10
43.02891603641527
 20
146.6186814044213
 30
0.0
  0
VERTEX
  5
E2
  8
LAYER_1
 10
43.02405075831459
 20
145.4036815341478
 30
0.0
  0
VERTEX
  5
E3
  8
LAYER_1
 10
43.0057332383829
 20
144.7283167531796
 30
0.0
  0
VERTEX
  5
E4
  8
LAYER_1
 10
42.95847088901392
 20
143.6307319098219
 30
0.0
  0
VERTEX
  5
E5
  8
LAYER_1
 10
42.85007972560888
 20
142.7619847252969
 30
0.0
  0
VERTEX
  5
E6
  8
LAYER_1
 10
42.69607059589516
 20
141.9836048323483
 30
0.0
  0
VERTEX
  5
E7
  8
LAYER_1
 10
42.47777657806488
 20
141.1586748396248
 30
0.0
  0
VERTEX
  5
E8
  8
LAYER_1
 10
42.0974291029383
 20
140.0877878871403
 30
0.0
  0
VERTEX
  5
E9
  8
LAYER_1
 10
41.61924744320277
 20
139.0590883190275
 30
0.0
  0
VERTEX
  5
EA
  8
LAYER_1
 10
41.10828008361281
 20
138.1585261688963
 30
0.0
  0
VERTEX
  5
EB
  8
LAYER_1
 10
40.55938628295246
 20
137.3387174926641
 30
0.0
  0
VERTEX
  5
EC
  8
LAYER_1
 10
39.95176336795146
 20
136.5592622649862
 30
0.0
  0
VERTEX
  5
ED
  8
LAYER_1
 10
39.54078675094084
 20
136.1078345001081
 30
0.0
  0
VERTEX
  5
EE
  8
LAYER_1
 10
39.23401655571625
 20
135.7855728275906
 30
0.0
  0
VERTEX
  5
EF
  8
LAYER_1
 10
39.44466838469862
 20
135.1389313243778
 30
0.0
  0
VERTEX
  5
F0
  8
LAYER_1
 10
39.65161667945159
 20
134.3657982458185
 30
0.0
  0
VERTEX
  5
F1
  8
LAYER_1
 10
39.81838887448728
 20
133.578064184677
 30
0.0
  0
VERTEX
  5
F2
  8
LAYER_1
 10
39.94399651406543
 20
132.7680474591485
 30
0.0
  0
VERTEX
  5
F3
  8
LAYER_1
 10
40.02513002475402
 20
131.9253959049109
 30
0.0
  0
VERTEX
  5
F4
  8
LAYER_1
 10
40.05309295777865
 20
131.0924874629402
 30
0.0
  0
VERTEX
  5
F5
  8
LAYER_1
 10
40.03475079847078
 20
130.3333706015859
 30
0.0
  0
VERTEX
  5
F6
  8
LAYER_1
 10
39.9828851584662
 20
129.6129546495045
 30
0.0
  0
VERTEX
  5
F7
  8
LAYER_1
 10
39.89452588445164
 20
128.879384914212
 30
0.0
  0
VERTEX
  5
F8
  8
LAYER_1
 10
39.76678317612452
 20
128.1298776924102
 30
0.0
  0
VERTEX
  5
F9
  8
LAYER_1
 10
39.59593002545318
 20
127.3630157304708
 30
0.0
  0
VERTEX
  5
FA
  8
LAYER_1
 10
39.42127077194156
 20
126.7377797429218
 30
0.0
  0
VERTEX
  5
FB
  8
LAYER_1
 10
39.65827296378951
 20
126.5385048756925
 30
0.0
  0
VERTEX
  5
FC
  8
LAYER_1
 10
40.02236945287109
 20
126.2226169264134
 30
0.0
  0
VERTEX
  5
FD
  8
LAYER_1
 10
40.73894421724435
 20
125.5214382182296
 30
0.0
  0
VERTEX
  5
FE
  8
LAYER_1
 10
41.38845813312582
 20
124.7923377551429
 30
0.0
  0
VERTEX
  5
FF
  8
LAYER_1
 10
41.91756199363772
 20
124.1259323726229
 30
0.0
  0
VERTEX
  5
100
  8
LAYER_1
 10
42.38796876459469
 20
123.4732550130614
 30
0.0
  0
VERTEX
  5
101
  8
LAYER_1
 10
42.86305416082166
 20
122.7364410643679
 30
0.0
  0
VERTEX
  5
102
  8
LAYER_1
 10
43.3278900446137
 20
121.907640827354
 30
0.0
  0
VERTEX
  5
103
  8
LAYER_1
 10
43.75603908771825
 20
121.017324461166
 30
0.0
  0
VERTEX
  5
104
  8
LAYER_1
 10
44.14409885639867
 20
120.0514341383496
 30
0.0
  0
VERTEX
  5
105
  8
LAYER_1
 10
44.29036014026757
 20
119.5959671742506
 30
0.0
  0
SEQEND
  5
106
  8
LAYER_1
  0
ENDSEC
  0
EOF
