  0
SECTION
  2
HEADER
  9
$ACADVER
  1
AC1009
  9
$DWGCODEPAGE
  3
ansi_1252
  9
$INSBASE
 10
0.0
 20
0.0
 30
0.0
  9
$EXTMIN
 10
15.81044913458821
 20
119.5959671742507
 30
0.0
  9
$EXTMAX
 10
34.97696293906844
 20
682.0
 30
0.0
  9
$LIMMIN
 10
0.0
 20
0.0
  9
$LIMMAX
 10
12.0
 20
9.0
  9
$ORTHOMODE
 70
     0
  9
$REGENMODE
 70
     1
  9
$FILLMODE
 70
     1
  9
$QTEXTMODE
 70
     0
  9
$MIRRTEXT
 70
     1
  9
$DRAGMODE
 70
     2
  9
$LTSCALE
 40
1.0
  9
$OSMODE
 70
    37
  9
$ATTMODE
 70
     1
  9
$TEXTSIZE
 40
0.2
  9
$TRACEWID
 40
0.05
  9
$TEXTSTYLE
  7
STANDARD
  9
$CLAYER
  8
0
  9
$CELTYPE
  6
BYLAYER
  9
$CECOLOR
 62
   256
  9
$DIMSCALE
 40
1.0
  9
$DIMASZ
 40
0.18
  9
$DIMEXO
 40
0.0625
  9
$DIMDLI
 40
0.38
  9
$DIMRND
 40
0.0
  9
$DIMDLE
 40
0.0
  9
$DIMEXE
 40
0.18
  9
$DIMTP
 40
0.0
  9
$DIMTM
 40
0.0
  9
$DIMTXT
 40
0.18
  9
$DIMCEN
 40
0.09
  9
$DIMTSZ
 40
0.0
  9
$DIMTOL
 70
     0
  9
$DIMLIM
 70
     0
  9
$DIMTIH
 70
     1
  9
$DIMTOH
 70
     1
  9
$DIMSE1
 70
     0
  9
$DIMSE2
 70
     0
  9
$DIMTAD
 70
     0
  9
$DIMZIN
 70
     0
  9
$DIMBLK
  1

  9
$DIMASO
 70
     1
  9
$DIMSHO
 70
     1
  9
$DIMPOST
  1

  9
$DIMAPOST
  1

  9
$DIMALT
 70
     0
  9
$DIMALTD
 70
     2
  9
$DIMALTF
 40
25.4
  9
$DIMLFAC
 40
1.0
  9
$DIMTOFL
 70
     0
  9
$DIMTVP
 40
0.0
  9
$DIMTIX
 70
     0
  9
$DIMSOXD
 70
     0
  9
$DIMSAH
 70
     0
  9
$DIMBLK1
  1

  9
$DIMBLK2
  1

  9
$DIMSTYLE
  2
STANDARD
  9
$DIMCLRD
 70
     0
  9
$DIMCLRE
 70
     0
  9
$DIMCLRT
 70
     0
  9
$DIMTFAC
 40
1.0
  9
$DIMGAP
 40
0.09
  9
$LUNITS
 70
     2
  9
$LUPREC
 70
     4
  9
$SKETCHINC
 40
0.1
  9
$FILLETRAD
 40
0.5
  9
$AUNITS
 70
     0
  9
$AUPREC
 70
     0
  9
$MENU
  1
.
  9
$ELEVATION
 40
0.0
  9
$PELEVATION
 40
0.0
  9
$THICKNESS
 40
0.0
  9
$LIMCHECK
 70
     0
  9
$CHAMFERA
 40
0.0
  9
$CHAMFERB
 40
0.0
  9
$SKPOLY
 70
     0
  9
$TDCREATE
 40
2454910.5
  9
$TDUPDATE
 40
2460298.602904838
  9
$TDINDWG
 40
0.0000000116
  9
$TDUSRTIMER
 40
0.0000000116
  9
$USRTIMER
 70
     1
  9
$ANGBASE
 50
0.0
  9
$ANGDIR
 70
     0
  9
$PDMODE
 70
     0
  9
$PDSIZE
 40
0.0
  9
$PLINEWID
 40
0.0
  9
$COORDS
 70
     1
  9
$SPLFRAME
 70
     0
  9
$SPLINETYPE
 70
     6
  9
$SPLINESEGS
 70
     8
  9
$ATTDIA
 70
     0
  9
$ATTREQ
 70
     1
  9
$HANDLING
 70
     1
  9
$HANDSEED
  5
219
  9
$SURFTAB1
 70
     6
  9
$SURFTAB2
 70
     6
  9
$SURFTYPE
 70
     6
  9
$SURFU
 70
     6
  9
$SURFV
 70
     6
  9
$UCSNAME
  2

  9
$UCSORG
 10
0.0
 20
0.0
 30
0.0
  9
$UCSXDIR
 10
1.0
 20
0.0
 30
0.0
  9
$UCSYDIR
 10
0.0
 20
1.0
 30
0.0
  9
$PUCSNAME
  2

  9
$PUCSORG
 10
0.0
 20
0.0
 30
0.0
  9
$PUCSXDIR
 10
1.0
 20
0.0
 30
0.0
  9
$PUCSYDIR
 10
0.0
 20
1.0
 30
0.0
  9
$USERI1
 70
     0
  9
$USERI2
 70
     0
  9
$USERI3
 70
     0
  9
$USERI4
 70
     0
  9
$USERI5
 70
     0
  9
$USERR1
 40
0.0
  9
$USERR2
 40
0.0
  9
$USERR3
 40
0.0
  9
$USERR4
 40
0.0
  9
$USERR5
 40
0.0
  9
$WORLDVIEW
 70
     1
  9
$SHADEDGE
 70
     3
  9
$SHADEDIF
 70
    70
  9
$TILEMODE
 70
     1
  9
$MAXACTVP
 70
    64
  9
$PLIMCHECK
 70
     0
  9
$PEXTMIN
 10
1.000000000000000E+20
 20
1.000000000000000E+20
 30
1.000000000000000E+20
  9
$PEXTMAX
 10
-1.000000000000000E+20
 20
-1.000000000000000E+20
 30
-1.000000000000000E+20
  9
$PLIMMIN
 10
0.0
 20
0.0
  9
$PLIMMAX
 10
12.0
 20
9.0
  9
$UNITMODE
 70
     0
  9
$VISRETAIN
 70
     1
  9
$PLINEGEN
 70
     0
  9
$PSLTSCALE
 70
     1
  0
ENDSEC
  0
SECTION
  2
TABLES
  0
TABLE
  2
VPORT
 70
     1
  0
VPORT
  2
*ACTIVE
 70
     0
 10
0.0
 20
0.0
 11
1.0
 21
1.0
 12
10.42990654205607
 22
4.5
 13
0.0
 23
0.0
 14
0.5
 24
0.5
 15
0.5
 25
0.5
 16
0.0
 26
0.0
 36
1.0
 17
0.0
 27
0.0
 37
0.0
 40
9.0
 41
1.972972972850329
 42
50.0
 43
0.0
 44
0.0
 50
0.0
 51
0.0
 71
     0
 72
   100
 73
     1
 74
     3
 75
     0
 76
     0
 77
     0
 78
     0
  0
ENDTAB
  0
TABLE
  2
LTYPE
 70
     2
  0
LTYPE
  2
CONTINUOUS
 70
     0
  3
Solid line
 72
    65
 73
     0
 40
0.0
  0
LTYPE
  2
CONTINUOUS2
 70
     0
  3
Solid Line
 72
    65
 73
     0
 40
0.0
  0
ENDTAB
  0
TABLE
  2
LAYER
 70
     2
  0
LAYER
  2
0
 70
     0
 62
     7
  6
CONTINUOUS
  0
LAYER
  2
LAYER_1
 70
     0
 62
    18
  6
CONTINUOUS
  0
ENDTAB
  0
TABLE
  2
STYLE
 70
     1
  0
STYLE
  2
STANDARD
 70
     0
 40
0.0
 41
1.0
 50
0.0
 71
     0
 42
0.2
  3
txt
  4

  0
ENDTAB
  0
TABLE
  2
VIEW
 70
     0
  0
ENDTAB
  0
TABLE
  2
UCS
 70
     0
  0
ENDTAB
  0
TABLE
  2
APPID
 70
     1
  0
APPID
  2
ACAD
 70
     0
  0
ENDTAB
  0
TABLE
  2
DIMSTYLE
 70
     1
  0
DIMSTYLE
  2
STANDARD
 70
     0
  3

  4

  5

  6

  7

 40
1.0
 41
0.18
 42
0.0625
 43
0.38
 44
0.18
 45
0.0
 46
0.0
 47
0.0
 48
0.0
140
0.18
141
0.09
142
0.0
143
25.4
144
1.0
145
0.0
146
1.0
147
0.09
 71
     0
 72
     0
 73
     1
 74
     1
 75
     0
 76
     0
 77
     0
 78
     0
170
     0
171
     2
172
     0
173
     0
174
     0
175
     0
176
     0
177
     0
178
     0
  0
ENDTAB
  0
ENDSEC
  0
SECTION
  2
BLOCKS
  0
BLOCK
  8
0
  2
$MODEL_SPACE
 70
     0
 10
0.0
 20
0.0
 30
0.0
  3
$MODEL_SPACE
  1

  0
ENDBLK
  5
21
  8
0
  0
BLOCK
 67
     1
  8
0
  2
$PAPER_SPACE
 70
     0
 10
0.0
 20
0.0
 30
0.0
  3
$PAPER_SPACE
  1

  0
ENDBLK
  5
1D
 67
     1
  8
0
  0
ENDSEC
  0
SECTION
  2
ENTITIES
  0
POLYLINE
  5
70
  8
LAYER_1
 66
     1
 10
0.0
 20
0.0
 30
0.0
  0
VERTEX
  5
78
  8
LAYER_1
 10
31.97707556769979
 20
119.5959671742507
 30
0.0
  0
VERTEX
  5
79
  8
LAYER_1
 10
27.9720803581248
 20
120.023563114821
 30
0.0
  0
VERTEX
  5
7A
  8
LAYER_1
 10
27.78728736728922
 20
120.0296118784735
 30
0.0
  0
VERTEX
  5
7B
  8
LAYER_1
 10
27.60792734613023
 20
120.0473555818331
 30
0.0
  0
VERTEX
  5
7C
  8
LAYER_1
 10
27.43402872166934
 20
120.0761903435025
 30
0.0
  0
VERTEX
  5
7D
  8
LAYER_1
 10
27.26561992092815
 20
120.1155122820847
 30
0.0
  0
VERTEX
  5
7E
  8
LAYER_1
 10
27.10272937092819
 20
120.1647175161825
 30
0.0
  0
VERTEX
  5
7F
  8
LAYER_1
 10
26.94538549869107
 20
120.2232021643989
 30
0.0
  0
VERTEX
  5
80
  8
LAYER_1
 10
26.7936167312383
 20
120.2903623453365
 30
0.0
  0
VERTEX
  5
81
  8
LAYER_1
 10
26.6474514955915
 20
120.3655941775984
 30
0.0
  0
VERTEX
  5
82
  8
LAYER_1
 10
26.50691821877217
 20
120.4482937797873
 30
0.0
  0
VERTEX
  5
83
  8
LAYER_1
 10
26.37204532780191
 20
120.5378572705062
 30
0.0
  0
VERTEX
  5
84
  8
LAYER_1
 10
26.24286124970229
 20
120.6336807683578
 30
0.0
  0
VERTEX
  5
85
  8
LAYER_1
 10
26.11939441149485
 20
120.7351603919452
 30
0.0
  0
VERTEX
  5
86
  8
LAYER_1
 10
25.88972616284278
 20
120.9526724907383
 30
0.0
  0
VERTEX
  5
87
  8
LAYER_1
 10
25.68326799801821
 20
121.1855625157086
 30
0.0
  0
VERTEX
  5
88
  8
LAYER_1
 10
25.50024733319364
 20
121.4289994156789
 30
0.0
  0
VERTEX
  5
89
  8
LAYER_1
 10
25.34089158454157
 20
121.678152139472
 30
0.0
  0
VERTEX
  5
8A
  8
LAYER_1
 10
25.2054281682345
 20
121.9281896359111
 30
0.0
  0
VERTEX
  5
8B
  8
LAYER_1
 10
25.09408450044492
 20
122.1742808538189
 30
0.0
  0
VERTEX
  5
8C
  8
LAYER_1
 10
25.00708799734535
 20
122.4115947420184
 30
0.0
  0
VERTEX
  5
8D
  8
LAYER_1
 10
24.94466607510827
 20
122.6353002493325
 30
0.0
  0
VERTEX
  5
8E
  8
LAYER_1
 10
24.90704614990619
 20
122.8405663245841
 30
0.0
  0
VERTEX
  5
8F
  8
LAYER_1
 10
24.89445563791162
 20
123.0225619165963
 30
0.0
  0
VERTEX
  5
90
  8
LAYER_1
 10
24.90704614990619
 20
123.2045799964591
 30
0.0
  0
VERTEX
  5
91
  8
LAYER_1
 10
24.94466607510827
 20
123.4099096243325
 30
0.0
  0
VERTEX
  5
92
  8
LAYER_1
 10
25.00708799734535
 20
123.6337138826434
 30
0.0
  0
VERTEX
  5
93
  8
LAYER_1
 10
25.09408450044492
 20
123.8711558538189
 30
0.0
  0
VERTEX
  5
94
  8
LAYER_1
 10
25.2054281682345
 20
124.1173986202861
 30
0.0
  0
VERTEX
  5
95
  8
LAYER_1
 10
25.34089158454157
 20
124.367605264472
 30
0.0
  0
VERTEX
  5
96
  8
LAYER_1
 10
25.50024733319364
 20
124.6169388688039
 30
0.0
  0
VERTEX
  5
97
  8
LAYER_1
 10
25.68326799801821
 20
124.8605625157086
 30
0.0
  0
VERTEX
  5
98
  8
LAYER_1
 10
25.88972616284278
 20
125.0936392876134
 30
0.0
  0
VERTEX
  5
99
  8
LAYER_1
 10
26.11939441149485
 20
125.3113322669452
 30
0.0
  0
VERTEX
  5
9A
  8
LAYER_1
 10
26.24286124970229
 20
125.4128982976547
 30
0.0
  0
VERTEX
  5
9B
  8
LAYER_1
 10
26.37204532780191
 20
125.5088045361312
 30
0.0
  0
VERTEX
  5
9C
  8
LAYER_1
 10
26.50691821877217
 20
125.5984463676779
 30
0.0
  0
VERTEX
  5
9D
  8
LAYER_1
 10
26.6474514955915
 20
125.6812191775984
 30
0.0
  0
VERTEX
  5
9E
  8
LAYER_1
 10
26.7936167312383
 20
125.7565183511959
 30
0.0
  0
VERTEX
  5
9F
  8
LAYER_1
 10
26.94538549869107
 20
125.8237392737739
 30
0.0
  0
VERTEX
  5
A0
  8
LAYER_1
 10
27.10272937092819
 20
125.8822773306357
 30
0.0
  0
VERTEX
  5
A1
  8
LAYER_1
 10
27.26561992092815
 20
125.9315279070847
 30
0.0
  0
VERTEX
  5
A2
  8
LAYER_1
 10
27.43402872166934
 20
125.9708863884244
 30
0.0
  0
VERTEX
  5
A3
  8
LAYER_1
 10
27.60792734613023
 20
125.9997481599581
 30
0.0
  0
VERTEX
  5
A4
  8
LAYER_1
 10
27.78728736728922
 20
126.0175086069891
 30
0.0
  0
VERTEX
  5
A5
  8
LAYER_1
 10
27.9720803581248
 20
126.023563114821
 30
0.0
  0
VERTEX
  5
A6
  8
LAYER_1
 10
27.9720803581248
 20
126.984563114821
 30
0.0
  0
VERTEX
  5
A7
  8
LAYER_1
 10
28.26114156002394
 20
127.1995934369084
 30
0.0
  0
VERTEX
  5
A8
  8
LAYER_1
 10
28.52429630207089
 20
127.4278720113816
 30
0.0
  0
VERTEX
  5
A9
  8
LAYER_1
 10
28.76254592974709
 20
127.6676677995295
 30
0.0
  0
VERTEX
  5
AA
  8
LAYER_1
 10
28.97689178853395
 20
127.9172497626408
 30
0.0
  0
VERTEX
  5
AB
  8
LAYER_1
 10
29.16833522391286
 20
128.1748868620043
 30
0.0
  0
VERTEX
  5
AC
  8
LAYER_1
 10
29.33787758136526
 20
128.4388480589089
 30
0.0
  0
VERTEX
  5
AD
  8
LAYER_1
 10
29.48652020637257
 20
128.7074023146432
 30
0.0
  0
VERTEX
  5
AE
  8
LAYER_1
 10
29.61526444441623
 20
128.9788185904962
 30
0.0
  0
VERTEX
  5
AF
  8
LAYER_1
 10
29.72511164097762
 20
129.2513658477565
 30
0.0
  0
VERTEX
  5
B0
  8
LAYER_1
 10
29.81706314153816
 20
129.523313047713
 30
0.0
  0
VERTEX
  5
B1
  8
LAYER_1
 10
29.8921202915793
 20
129.7929291516546
 30
0.0
  0
VERTEX
  5
B2
  8
LAYER_1
 10
29.95128443658243
 20
130.0584831208699
 30
0.0
  0
VERTEX
  5
B3
  8
LAYER_1
 10
29.99555692202898
 20
130.3182439166478
 30
0.0
  0
VERTEX
  5
B4
  8
LAYER_1
 10
30.02593909340038
 20
130.570480500277
 30
0.0
  0
VERTEX
  5
B5
  8
LAYER_1
 10
30.04343229617804
 20
130.8134618330465
 30
0.0
  0
VERTEX
  5
B6
  8
LAYER_1
 10
30.04903787584337
 20
131.0454568762448
 30
0.0
  0
VERTEX
  5
B7
  8
LAYER_1
 10
30.041237683251
 20
131.2777946733347
 30
0.0
  0
VERTEX
  5
B8
  8
LAYER_1
 10
30.01776128221188
 20
131.5216202597568
 30
0.0
  0
VERTEX
  5
B9
  8
LAYER_1
 10
29.97848158764185
 20
131.7749265847671
 30
0.0
  0
VERTEX
  5
BA
  8
LAYER_1
 10
29.92327151445681
 20
132.0357065976216
 30
0.0
  0
VERTEX
  5
BB
  8
LAYER_1
 10
29.85200397757259
 20
132.3019532475765
 30
0.0
  0
VERTEX
  5
BC
  8
LAYER_1
 10
29.76455189190506
 20
132.5716594838877
 30
0.0
  0
VERTEX
  5
BD
  8
LAYER_1
 10
29.66078817237009
 20
132.8428182558112
 30
0.0
  0
VERTEX
  5
BE
  8
LAYER_1
 10
29.54058573388355
 20
133.1134225126031
 30
0.0
  0
VERTEX
  5
BF
  8
LAYER_1
 10
29.40381749136127
 20
133.3814652035194
 30
0.0
  0
VERTEX
  5
C0
  8
LAYER_1
 10
29.25035635971915
 20
133.6449392778161
 30
0.0
  0
VERTEX
  5
C1
  8
LAYER_1
 10
29.08007525387303
 20
133.9018376847492
 30
0.0
  0
VERTEX
  5
C2
  8
LAYER_1
 10
28.89284708873879
 20
134.1501533735749
 30
0.0
  0
VERTEX
  5
C3
  8
LAYER_1
 10
28.68854477923229
 20
134.387879293549
 30
0.0
  0
VERTEX
  5
C4
  8
LAYER_1
 10
28.46704124026938
 20
134.6130083939277
 30
0.0
  0
VERTEX
  5
C5
  8
LAYER_1
 10
28.22820938676593
 20
134.823533623967
 30
0.0
  0
VERTEX
  5
C6
  8
LAYER_1
 10
27.9719221336378
 20
135.0174479329228
 30
0.0
  0
VERTEX
  5
C7
  8
LAYER_1
 10
27.90946225334471
 20
135.9789696426616
 30
0.0
  0
VERTEX
  5
C8
  8
LAYER_1
 10
27.76906726865032
 20
135.9840052933999
 30
0.0
  0
VERTEX
  5
C9
  8
LAYER_1
 10
27.62929977954622
 20
135.9988406982756
 30
0.0
  0
VERTEX
  5
CA
  8
LAYER_1
 10
27.49041098350094
 20
136.0230685362798
 30
0.0
  0
VERTEX
  5
CB
  8
LAYER_1
 10
27.35265207798307
 20
136.0562814864036
 30
0.0
  0
VERTEX
  5
CC
  8
LAYER_1
 10
27.21627426046118
 20
136.0980722276383
 30
0.0
  0
VERTEX
  5
CD
  8
LAYER_1
 10
27.08152872840382
 20
136.1480334389747
 30
0.0
  0
VERTEX
  5
CE
  8
LAYER_1
 10
26.9486666792796
 20
136.2057577994042
 30
0.0
  0
VERTEX
  5
CF
  8
LAYER_1
 10
26.81793931055704
 20
136.2708379879178
 30
0.0
  0
VERTEX
  5
D0
  8
LAYER_1
 10
26.56389340419128
 20
136.4214365651621
 30
0.0
  0
VERTEX
  5
D1
  8
LAYER_1
 10
26.32140058905507
 20
136.5965706026364
 30
0.0
  0
VERTEX
  5
D2
  8
LAYER_1
 10
26.09247044489697
 20
136.7929815322698
 30
0.0
  0
VERTEX
  5
D3
  8
LAYER_1
 10
25.87911255146552
 20
137.0074107859913
 30
0.0
  0
VERTEX
  5
D4
  8
LAYER_1
 10
25.68333648850933
 20
137.2365997957299
 30
0.0
  0
VERTEX
  5
D5
  8
LAYER_1
 10
25.50715183577685
 20
137.4772899934147
 30
0.0
  0
VERTEX
  5
D6
  8
LAYER_1
 10
25.35256817301672
 20
137.7262228109747
 30
0.0
  0
VERTEX
  5
D7
  8
LAYER_1
 10
25.22159507997745
 20
137.9801396803388
 30
0.0
  0
VERTEX
  5
D8
  8
LAYER_1
 10
25.11624213640759
 20
138.2357820334361
 30
0.0
  0
VERTEX
  5
D9
  8
LAYER_1
 10
25.03851892205572
 20
138.4898913021956
 30
0.0
  0
VERTEX
  5
DA
  8
LAYER_1
 10
24.99043501667035
 20
138.7392089185462
 30
0.0
  0
VERTEX
  5
DB
  8
LAYER_1
 10
24.97813579851152
 20
138.8610525545461
 30
0.0
  0
VERTEX
  5
DC
  8
LAYER_1
 10
24.97400000000005
 20
138.9804763144172
 30
0.0
  0
VERTEX
  5
DD
  8
LAYER_1
 10
24.97819142426577
 20
139.0998345813437
 30
0.0
  0
VERTEX
  5
DE
  8
LAYER_1
 10
24.99053920642855
 20
139.2216033886145
 30
0.0
  0
VERTEX
  5
DF
  8
LAYER_1
 10
25.03870044376779
 20
139.4707463344923
 30
0.0
  0
VERTEX
  5
E0
  8
LAYER_1
 10
25.11647691066275
 20
139.7246525726566
 30
0.0
  0
VERTEX
  5
E1
  8
LAYER_1
 10
25.22186180575846
 20
139.9800695237136
 30
0.0
  0
VERTEX
  5
E2
  8
LAYER_1
 10
25.3528483276999
 20
140.2337446082694
 30
0.0
  0
VERTEX
  5
E3
  8
LAYER_1
 10
25.50742967513207
 20
140.4824252469301
 30
0.0
  0
VERTEX
  5
E4
  8
LAYER_1
 10
25.6835990467
 20
140.722858860302
 30
0.0
  0
VERTEX
  5
E5
  8
LAYER_1
 10
25.87934964104866
 20
140.9517928689911
 30
0.0
  0
VERTEX
  5
E6
  8
LAYER_1
 10
26.09267465682306
 20
141.1659746936036
 30
0.0
  0
VERTEX
  5
E7
  8
LAYER_1
 10
26.32156729266819
 20
141.3621517547456
 30
0.0
  0
VERTEX
  5
E8
  8
LAYER_1
 10
26.56402074722908
 20
141.5370714730233
 30
0.0
  0
VERTEX
  5
E9
  8
LAYER_1
 10
26.8180282191507
 20
141.6874812690428
 30
0.0
  0
VERTEX
  5
EA
  8
LAYER_1
 10
27.08158290707809
 20
141.8101285634102
 30
0.0
  0
VERTEX
  5
EB
  8
LAYER_1
 10
27.2163133316205
 20
141.8600248414138
 30
0.0
  0
VERTEX
  5
EC
  8
LAYER_1
 10
27.35267800965622
 20
141.9017607767317
 30
0.0
  0
VERTEX
  5
ED
  8
LAYER_1
 10
27.49042609101588
 20
141.9349297969397
 30
0.0
  0
VERTEX
  5
EE
  8
LAYER_1
 10
27.62930672553009
 20
141.9591253296135
 30
0.0
  0
VERTEX
  5
EF
  8
LAYER_1
 10
27.76906906302949
 20
141.9739408023289
 30
0.0
  0
VERTEX
  5
F0
  8
LAYER_1
 10
27.90946225334471
 20
141.9789696426616
 30
0.0
  0
VERTEX
  5
F1
  8
LAYER_1
 10
30.40946225334471
 20
141.9789696426616
 30
0.0
  0
VERTEX
  5
F2
  8
LAYER_1
 10
30.490387849809
 20
141.9840992137875
 30
0.0
  0
VERTEX
  5
F3
  8
LAYER_1
 10
30.58214356096997
 20
141.9990167730283
 30
0.0
  0
VERTEX
  5
F4
  8
LAYER_1
 10
30.79201885799046
 20
142.0553889310328
 30
0.0
  0
VERTEX
  5
F5
  8
LAYER_1
 10
31.02683520562337
 20
142.1424322670317
 30
0.0
  0
VERTEX
  5
F6
  8
LAYER_1
 10
31.27433966508585
 20
142.2544929313816
 30
0.0
  0
VERTEX
  5
F7
  8
LAYER_1
 10
31.52227929759506
 20
142.3859170744392
 30
0.0
  0
VERTEX
  5
F8
  8
LAYER_1
 10
31.75840116436817
 20
142.531050846561
 30
0.0
  0
VERTEX
  5
F9
  8
LAYER_1
 10
31.97045232662229
 20
142.6842403981036
 30
0.0
  0
VERTEX
  5
FA
  8
LAYER_1
 10
32.14617984557462
 20
142.8398318794236
 30
0.0
  0
VERTEX
  5
FB
  8
LAYER_1
 10
32.29992931930715
 20
143.008714434793
 30
0.0
  0
VERTEX
  5
FC
  8
LAYER_1
 10
32.4507252446333
 20
143.2021545921761
 30
0.0
  0
VERTEX
  5
FD
  8
LAYER_1
 10
32.59315949029207
 20
143.4148894240194
 30
0.0
  0
VERTEX
  5
FE
  8
LAYER_1
 10
32.72182392502242
 20
143.6416560027691
 30
0.0
  0
VERTEX
  5
FF
  8
LAYER_1
 10
32.83131041756337
 20
143.8771914008716
 30
0.0
  0
VERTEX
  5
100
  8
LAYER_1
 10
32.91621083665387
 20
144.1162326907731
 30
0.0
  0
VERTEX
  5
101
  8
LAYER_1
 10
32.94775122763615
 20
144.235423380288
 30
0.0
  0
VERTEX
  5
102
  8
LAYER_1
 10
32.97111705103292
 20
144.3535169449201
 30
0.0
  0
VERTEX
  5
103
  8
LAYER_1
 10
32.98563229043657
 20
144.4698555187251
 30
0.0
  0
VERTEX
  5
104
  8
LAYER_1
 10
32.9906209294395
 20
144.5837812357588
 30
0.0
  0
VERTEX
  5
105
  8
LAYER_1
 10
33.01147771888509
 20
145.0757021810884
 30
0.0
  0
VERTEX
  5
106
  8
LAYER_1
 10
33.02459367892352
 20
145.5592860675207
 30
0.0
  0
VERTEX
  5
107
  8
LAYER_1
 10
33.02837007210442
 20
146.5023600562591
 30
0.0
  0
VERTEX
  5
108
  8
LAYER_1
 10
33.00348403163301
 20
147.4148379871054
 30
0.0
  0
VERTEX
  5
109
  8
LAYER_1
 10
32.95146948016011
 20
148.2985546451905
 30
0.0
  0
VERTEX
  5
10A
  8
LAYER_1
 10
32.87386034033655
 20
149.1553448156459
 30
0.0
  0
VERTEX
  5
10B
  8
LAYER_1
 10
32.77219053481309
 20
149.9870432836026
 30
0.0
  0
VERTEX
  5
10C
  8
LAYER_1
 10
32.64799398624059
 20
150.7954848341919
 30
0.0
  0
VERTEX
  5
10D
  8
LAYER_1
 10
32.50280461726983
 20
151.582504252545
 30
0.0
  0
VERTEX
  5
10E
  8
LAYER_1
 10
32.33815635055163
 20
152.3499363237932
 30
0.0
  0
VERTEX
  5
10F
  8
LAYER_1
 10
32.15558310873681
 20
153.0996158330675
 30
0.0
  0
VERTEX
  5
110
  8
LAYER_1
 10
31.95661881447614
 20
153.8333775654992
 30
0.0
  0
VERTEX
  5
111
  8
LAYER_1
 10
31.74279739042048
 20
154.5530563062195
 30
0.0
  0
VERTEX
  5
112
  8
LAYER_1
 10
31.51565275922061
 20
155.2604868403596
 30
0.0
  0
VERTEX
  5
113
  8
LAYER_1
 10
31.27671884352736
 20
155.9575039530508
 30
0.0
  0
VERTEX
  5
114
  8
LAYER_1
 10
31.02752956599151
 20
156.6459424294241
 30
0.0
  0
VERTEX
  5
115
  8
LAYER_1
 10
30.76961884926391
 20
157.3276370546109
 30
0.0
  0
VERTEX
  5
116
  8
LAYER_1
 10
30.49265910305201
 20
158.0169968357314
 30
0.0
  0
VERTEX
  5
117
  8
LAYER_1
 10
30.18707853308743
 20
158.7230445515573
 30
0.0
  0
VERTEX
  5
118
  8
LAYER_1
 10
29.8545707811668
 20
159.4420618695977
 30
0.0
  0
VERTEX
  5
119
  8
LAYER_1
 10
29.49682948908675
 20
160.1703304573613
 30
0.0
  0
VERTEX
  5
11A
  8
LAYER_1
 10
29.11554829864392
 20
160.9041319823572
 30
0.0
  0
VERTEX
  5
11B
  8
LAYER_1
 10
28.71242085163495
 20
161.6397481120943
 30
0.0
  0
VERTEX
  5
11C
  8
LAYER_1
 10
28.28914078985646
 20
162.3734605140814
 30
0.0
  0
VERTEX
  5
11D
  8
LAYER_1
 10
27.8474017551051
 20
163.1015508558276
 30
0.0
  0
VERTEX
  5
11E
  8
LAYER_1
 10
27.38889738917749
 20
163.8203008048415
 30
0.0
  0
VERTEX
  5
11F
  8
LAYER_1
 10
26.91532133387027
 20
164.5259920286323
 30
0.0
  0
VERTEX
  5
120
  8
LAYER_1
 10
26.42836723098007
 20
165.2149061947087
 30
0.0
  0
VERTEX
  5
121
  8
LAYER_1
 10
25.92972872230354
 20
165.8833249705798
 30
0.0
  0
VERTEX
  5
122
  8
LAYER_1
 10
25.4210994496373
 20
166.5275300237543
 30
0.0
  0
VERTEX
  5
123
  8
LAYER_1
 10
24.90417305477798
 20
167.1438030217412
 30
0.0
  0
VERTEX
  5
124
  8
LAYER_1
 10
24.38064317952222
 20
167.7284256320495
 30
0.0
  0
VERTEX
  5
125
  8
LAYER_1
 10
23.85220346566668
 20
168.277679522188
 30
0.0
  0
VERTEX
  5
126
  8
LAYER_1
 10
23.72401632562089
 20
168.4141703307683
 30
0.0
  0
VERTEX
  5
127
  8
LAYER_1
 10
23.60450820056963
 20
168.5581177789104
 30
0.0
  0
VERTEX
  5
128
  8
LAYER_1
 10
23.49351146872468
 20
168.7089819646333
 30
0.0
  0
VERTEX
  5
129
  8
LAYER_1
 10
23.3908585082978
 20
168.8662229859562
 30
0.0
  0
VERTEX
  5
12A
  8
LAYER_1
 10
23.29638169750076
 20
169.0293009408981
 30
0.0
  0
VERTEX
  5
12B
  8
LAYER_1
 10
23.20991341454531
 20
169.1976759274781
 30
0.0
  0
VERTEX
  5
12C
  8
LAYER_1
 10
23.13128603764324
 20
169.3708080437154
 30
0.0
  0
VERTEX
  5
12D
  8
LAYER_1
 10
23.06033194500628
 20
169.548157387629
 30
0.0
  0
VERTEX
  5
12E
  8
LAYER_1
 10
22.99688351484625
 20
169.729184057238
 30
0.0
  0
VERTEX
  5
12F
  8
LAYER_1
 10
22.94077312537485
 20
169.9133481505615
 30
0.0
  0
VERTEX
  5
130
  8
LAYER_1
 10
22.8498959813451
 20
170.2889290004285
 30
0.0
  0
VERTEX
  5
131
  8
LAYER_1
 10
22.78635953861118
 20
170.6705807213828
 30
0.0
  0
VERTEX
  5
132
  8
LAYER_1
 10
22.7488228228672
 20
171.053984097577
 30
0.0
  0
VERTEX
  5
133
  8
LAYER_1
 10
22.73594485980726
 20
171.4348199131641
 30
0.0
  0
VERTEX
  5
134
  8
LAYER_1
 10
22.74638467512551
 20
171.8087689522966
 30
0.0
  0
VERTEX
  5
135
  8
LAYER_1
 10
22.77880129451607
 20
172.1715119991275
 30
0.0
  0
VERTEX
  5
136
  8
LAYER_1
 10
22.83185374367305
 20
172.5187298378094
 30
0.0
  0
VERTEX
  5
137
  8
LAYER_1
 10
22.90420104829056
 20
172.8461032524951
 30
0.0
  0
VERTEX
  5
138
  8
LAYER_1
 10
22.99450223406274
 20
173.1493130273375
 30
0.0
  0
VERTEX
  5
139
  8
LAYER_1
 10
23.10141632668368
 20
173.4240399464892
 30
0.0
  0
VERTEX
  5
13A
  8
LAYER_1
 10
23.22360235184752
 20
173.6659647941031
 30
0.0
  0
VERTEX
  5
13B
  8
LAYER_1
 10
23.36307150498124
 20
173.8918787325794
 30
0.0
  0
VERTEX
  5
13C
  8
LAYER_1
 10
23.52332739970694
 20
174.1199163158913
 30
0.0
  0
VERTEX
  5
13D
  8
LAYER_1
 10
23.70526768901149
 20
174.3477734155514
 30
0.0
  0
VERTEX
  5
13E
  8
LAYER_1
 10
23.90979002588176
 20
174.5731459030723
 30
0.0
  0
VERTEX
  5
13F
  8
LAYER_1
 10
24.13779206330459
 20
174.7937296499663
 30
0.0
  0
VERTEX
  5
140
  8
LAYER_1
 10
24.39017145426686
 20
175.007220527746
 30
0.0
  0
VERTEX
  5
141
  8
LAYER_1
 10
24.66782585175541
 20
175.2113144079239
 30
0.0
  0
VERTEX
  5
142
  8
LAYER_1
 10
24.97165290875711
 20
175.4037071620124
 30
0.0
  0
VERTEX
  5
143
  8
LAYER_1
 10
25.30255027825879
 20
175.5820946615241
 30
0.0
  0
VERTEX
  5
144
  8
LAYER_1
 10
25.66141561324734
 20
175.7441727779715
 30
0.0
  0
VERTEX
  5
145
  8
LAYER_1
 10
26.0491465667096
 20
175.8876373828671
 30
0.0
  0
VERTEX
  5
146
  8
LAYER_1
 10
26.46664079163244
 20
176.0101843477233
 30
0.0
  0
VERTEX
  5
147
  8
LAYER_1
 10
26.68682964744997
 20
176.0628936749844
 30
0.0
  0
VERTEX
  5
148
  8
LAYER_1
 10
26.91479594100271
 20
176.1095095440527
 30
0.0
  0
VERTEX
  5
149
  8
LAYER_1
 10
27.15065187891403
 20
176.1497439388675
 30
0.0
  0
VERTEX
  5
14A
  8
LAYER_1
 10
27.39450966780727
 20
176.1833088433678
 30
0.0
  0
VERTEX
  5
14B
  8
LAYER_1
 10
27.6464815143058
 20
176.2099162414926
 30
0.0
  0
VERTEX
  5
14C
  8
LAYER_1
 10
27.90667962503298
 20
176.229278117181
 30
0.0
  0
VERTEX
  5
14D
  8
LAYER_1
 10
28.17521620661215
 20
176.241106454372
 30
0.0
  0
VERTEX
  5
14E
  8
LAYER_1
 10
28.45220346566668
 20
176.2451132370048
 30
0.0
  0
VERTEX
  5
14F
  8
LAYER_1
 10
28.9926737526263
 20
176.4632102110086
 30
0.0
  0
VERTEX
  5
150
  8
LAYER_1
 10
29.51429827087668
 20
176.6823877464219
 30
0.0
  0
VERTEX
  5
151
  8
LAYER_1
 10
30.01814426889297
 20
176.9026345530733
 30
0.0
  0
VERTEX
  5
152
  8
LAYER_1
 10
30.50527899515033
 20
177.1239393407913
 30
0.0
  0
VERTEX
  5
153
  8
LAYER_1
 10
31.43368362628897
 20
177.5696776987412
 30
0.0
  0
VERTEX
  5
154
  8
LAYER_1
 10
32.30805015209387
 20
178.0195124988999
 30
0.0
  0
VERTEX
  5
155
  8
LAYER_1
 10
32.73523364514102
 20
178.2419720452921
 30
0.0
  0
VERTEX
  5
156
  8
LAYER_1
 10
33.18425680699113
 20
178.4855962529081
 30
0.0
  0
VERTEX
  5
157
  8
LAYER_1
 10
33.4093686103474
 20
178.6200814766069
 30
0.0
  0
VERTEX
  5
158
  8
LAYER_1
 10
33.63083274686055
 20
178.7655415119299
 30
0.0
  0
VERTEX
  5
159
  8
LAYER_1
 10
33.84561335518259
 20
178.9238709076498
 30
0.0
  0
VERTEX
  5
15A
  8
LAYER_1
 10
34.05067457396558
 20
179.0969642125395
 30
0.0
  0
VERTEX
  5
15B
  8
LAYER_1
 10
34.24298054186156
 20
179.2867159753717
 30
0.0
  0
VERTEX
  5
15C
  8
LAYER_1
 10
34.41949539752257
 20
179.4950207449191
 30
0.0
  0
VERTEX
  5
15D
  8
LAYER_1
 10
34.57718327960063
 20
179.7237730699545
 30
0.0
  0
VERTEX
  5
15E
  8
LAYER_1
 10
34.64801839887484
 20
179.8464091122717
 30
0.0
  0
VERTEX
  5
15F
  8
LAYER_1
 10
34.71300832674783
 20
179.9748674992506
 30
0.0
  0
VERTEX
  5
160
  8
LAYER_1
 10
34.77177358055107
 20
180.1093850494879
 30
0.0
  0
VERTEX
  5
161
  8
LAYER_1
 10
34.82393467761614
 20
180.2501985815802
 30
0.0
  0
VERTEX
  5
162
  8
LAYER_1
 10
34.86911213527452
 20
180.397544914124
 30
0.0
  0
VERTEX
  5
163
  8
LAYER_1
 10
34.90692647085766
 20
180.551660865716
 30
0.0
  0
VERTEX
  5
164
  8
LAYER_1
 10
34.93699820169712
 20
180.7127832549527
 30
0.0
  0
VERTEX
  5
165
  8
LAYER_1
 10
34.95894784512441
 20
180.8811489004308
 30
0.0
  0
VERTEX
  5
166
  8
LAYER_1
 10
34.97239591847101
 20
181.0569946207468
 30
0.0
  0
VERTEX
  5
167
  8
LAYER_1
 10
34.97696293906844
 20
181.2405572344974
 30
0.0
  0
VERTEX
  5
168
  8
LAYER_1
 10
27.42966771403883
 20
610.7213803208347
 30
0.0
  0
VERTEX
  5
169
  8
LAYER_1
 10
27.42959489015681
 20
610.8415031131182
 30
0.0
  0
VERTEX
  5
16A
  8
LAYER_1
 10
27.41854155506425
 20
610.9591259748154
 30
0.0
  0
VERTEX
  5
16B
  8
LAYER_1
 10
27.39739948913453
 20
611.074153856169
 30
0.0
  0
VERTEX
  5
16C
  8
LAYER_1
 10
27.367060472741
 20
611.1864917074223
 30
0.0
  0
VERTEX
  5
16D
  8
LAYER_1
 10
27.32841628625701
 20
611.2960444788179
 30
0.0
  0
VERTEX
  5
16E
  8
LAYER_1
 10
27.28235871005595
 20
611.4027171205986
 30
0.0
  0
VERTEX
  5
16F
  8
LAYER_1
 10
27.17157050999604
 20
611.6070418162874
 30
0.0
  0
VERTEX
  5
170
  8
LAYER_1
 10
27.04183011554819
 20
611.7987053964318
 30
0.0
  0
VERTEX
  5
171
  8
LAYER_1
 10
26.90027176969932
 20
611.9769474629752
 30
0.0
  0
VERTEX
  5
172
  8
LAYER_1
 10
26.7540297154363
 20
612.1410076178605
 30
0.0
  0
VERTEX
  5
173
  8
LAYER_1
 10
26.61023819574613
 20
612.2901254630308
 30
0.0
  0
VERTEX
  5
174
  8
LAYER_1
 10
26.46156640943281
 20
612.4344384239712
 30
0.0
  0
VERTEX
  5
175
  8
LAYER_1
 10
26.29864797986356
 20
612.5783796323352
 30
0.0
  0
VERTEX
  5
176
  8
LAYER_1
 10
26.12170194323843
 20
612.7165272892316
 30
0.0
  0
VERTEX
  5
177
  8
LAYER_1
 10
25.93094733575748
 20
612.8434595957685
 30
0.0
  0
VERTEX
  5
178
  8
LAYER_1
 10
25.72660319362076
 20
612.9537547530547
 30
0.0
  0
VERTEX
  5
179
  8
LAYER_1
 10
25.50888855302833
 20
613.0419909621985
 30
0.0
  0
VERTEX
  5
17A
  8
LAYER_1
 10
25.39508574462371
 20
613.0761426490634
 30
0.0
  0
VERTEX
  5
17B
  8
LAYER_1
 10
25.27802245018022
 20
613.1027464243084
 30
0.0
  0
VERTEX
  5
17C
  8
LAYER_1
 10
25.15772604922282
 20
613.1211245630719
 30
0.0
  0
VERTEX
  5
17D
  8
LAYER_1
 10
25.03422392127652
 20
613.1305993404927
 30
0.0
  0
VERTEX
  5
17E
  8
LAYER_1
 10
24.7118447223263
 20
613.1389018898178
 30
0.0
  0
VERTEX
  5
17F
  8
LAYER_1
 10
24.40090446365654
 20
613.1633683103439
 30
0.0
  0
VERTEX
  5
180
  8
LAYER_1
 10
24.10132415253862
 20
613.2033367608972
 30
0.0
  0
VERTEX
  5
181
  8
LAYER_1
 10
23.81302479624392
 20
613.2581454003036
 30
0.0
  0
VERTEX
  5
182
  8
LAYER_1
 10
23.53592740204382
 20
613.3271323873896
 30
0.0
  0
VERTEX
  5
183
  8
LAYER_1
 10
23.26995297720968
 20
613.4096358809812
 30
0.0
  0
VERTEX
  5
184
  8
LAYER_1
 10
23.0150225290129
 20
613.5049940399045
 30
0.0
  0
VERTEX
  5
185
  8
LAYER_1
 10
22.7710570647248
 20
613.6125450229856
 30
0.0
  0
VERTEX
  5
186
  8
LAYER_1
 10
22.53797759161681
 20
613.7316269890507
 30
0.0
  0
VERTEX
  5
187
  8
LAYER_1
 10
22.31570511696029
 20
613.861578096926
 30
0.0
  0
VERTEX
  5
188
  8
LAYER_1
 10
22.10416064802661
 20
614.0017365054375
 30
0.0
  0
VERTEX
  5
189
  8
LAYER_1
 10
21.90326519208713
 20
614.1514403734116
 30
0.0
  0
VERTEX
  5
18A
  8
LAYER_1
 10
21.71293975641325
 20
614.3100278596742
 30
0.0
  0
VERTEX
  5
18B
  8
LAYER_1
 10
21.53310534827634
 20
614.4768371230516
 30
0.0
  0
VERTEX
  5
18C
  8
LAYER_1
 10
21.36368297494776
 20
614.6512063223697
 30
0.0
  0
VERTEX
  5
18D
  8
LAYER_1
 10
21.20459364369889
 20
614.8324736164551
 30
0.0
  0
VERTEX
  5
18E
  8
LAYER_1
 10
21.05575836180111
 20
615.0199771641335
 30
0.0
  0
VERTEX
  5
18F
  8
LAYER_1
 10
20.91709813652579
 20
615.2130551242312
 30
0.0
  0
VERTEX
  5
190
  8
LAYER_1
 10
20.78853397514433
 20
615.4110456555744
 30
0.0
  0
VERTEX
  5
191
  8
LAYER_1
 10
20.66998688492806
 20
615.6132869169892
 30
0.0
  0
VERTEX
  5
192
  8
LAYER_1
 10
20.56137787314839
 20
615.8191170673017
 30
0.0
  0
VERTEX
  5
193
  8
LAYER_1
 10
20.46262794707667
 20
616.0278742653379
 30
0.0
  0
VERTEX
  5
194
  8
LAYER_1
 10
20.37365811398429
 20
616.2388966699243
 30
0.0
  0
VERTEX
  5
195
  8
LAYER_1
 10
20.29438938114262
 20
616.451522439887
 30
0.0
  0
VERTEX
  5
196
  8
LAYER_1
 10
20.22474275582306
 20
616.6650897340519
 30
0.0
  0
VERTEX
  5
197
  8
LAYER_1
 10
20.16463924529693
 20
616.8789367112452
 30
0.0
  0
VERTEX
  5
198
  8
LAYER_1
 10
20.11399985683565
 20
617.0924015302932
 30
0.0
  0
VERTEX
  5
199
  8
LAYER_1
 10
20.07274559771058
 20
617.3048223500218
 30
0.0
  0
VERTEX
  5
19A
  8
LAYER_1
 10
20.0407974751931
 20
617.5155373292573
 30
0.0
  0
VERTEX
  5
19B
  8
LAYER_1
 10
20.01807649655456
 20
617.723884626826
 30
0.0
  0
VERTEX
  5
19C
  8
LAYER_1
 10
20.00450366906637
 20
617.9292024015538
 30
0.0
  0
VERTEX
  5
19D
  8
LAYER_1
 10
19.99999999999989
 20
618.1308288122669
 30
0.0
  0
VERTEX
  5
19E
  8
LAYER_1
 10
20.0045122638796
 20
618.332445370047
 30
0.0
  0
VERTEX
  5
19F
  8
LAYER_1
 10
20.01809259506011
 20
618.5377518544929
 30
0.0
  0
VERTEX
  5
1A0
  8
LAYER_1
 10
20.0408200399317
 20
618.7460865392038
 30
0.0
  0
VERTEX
  5
1A1
  8
LAYER_1
 10
20.07277364488469
 20
618.9567876977792
 30
0.0
  0
VERTEX
  5
1A2
  8
LAYER_1
 10
20.11403245630939
 20
619.1691936038185
 30
0.0
  0
VERTEX
  5
1A3
  8
LAYER_1
 10
20.16467552059611
 20
619.3826425309212
 30
0.0
  0
VERTEX
  5
1A4
  8
LAYER_1
 10
20.22478188413515
 20
619.5964727526866
 30
0.0
  0
VERTEX
  5
1A5
  8
LAYER_1
 10
20.29443059331683
 20
619.8100225427141
 30
0.0
  0
VERTEX
  5
1A6
  8
LAYER_1
 10
20.37370069453146
 20
620.0226301746033
 30
0.0
  0
VERTEX
  5
1A7
  8
LAYER_1
 10
20.46267123416936
 20
620.2336339219534
 30
0.0
  0
VERTEX
  5
1A8
  8
LAYER_1
 10
20.56142125862084
 20
620.4423720583638
 30
0.0
  0
VERTEX
  5
1A9
  8
LAYER_1
 10
20.67002981427619
 20
620.6481828574341
 30
0.0
  0
VERTEX
  5
1AA
  8
LAYER_1
 10
20.78857594752574
 20
620.8504045927637
 30
0.0
  0
VERTEX
  5
1AB
  8
LAYER_1
 10
20.91713870475979
 20
621.0483755379518
 30
0.0
  0
VERTEX
  5
1AC
  8
LAYER_1
 10
21.05579713236865
 20
621.2414339665979
 30
0.0
  0
VERTEX
  5
1AD
  8
LAYER_1
 10
21.20463027674263
 20
621.4289181523015
 30
0.0
  0
VERTEX
  5
1AE
  8
LAYER_1
 10
21.36371718427205
 20
621.610166368662
 30
0.0
  0
VERTEX
  5
1AF
  8
LAYER_1
 10
21.53313690134721
 20
621.7845168892787
 30
0.0
  0
VERTEX
  5
1B0
  8
LAYER_1
 10
21.71296847435842
 20
621.9513079877512
 30
0.0
  0
VERTEX
  5
1B1
  8
LAYER_1
 10
21.90329094969601
 20
622.1098779376787
 30
0.0
  0
VERTEX
  5
1B2
  8
LAYER_1
 10
22.10418337375027
 20
622.2595650126607
 30
0.0
  0
VERTEX
  5
1B3
  8
LAYER_1
 10
22.31572479291151
 20
622.3997074862966
 30
0.0
  0
VERTEX
  5
1B4
  8
LAYER_1
 10
22.53799425357006
 20
622.5296436321859
 30
0.0
  0
VERTEX
  5
1B5
  8
LAYER_1
 10
22.77107080211621
 20
622.648711723928
 30
0.0
  0
VERTEX
  5
1B6
  8
LAYER_1
 10
23.01503348494028
 20
622.7562500351223
 30
0.0
  0
VERTEX
  5
1B7
  8
LAYER_1
 10
23.26996134843257
 20
622.8515968393681
 30
0.0
  0
VERTEX
  5
1B8
  8
LAYER_1
 10
23.53593343898339
 20
622.934090410265
 30
0.0
  0
VERTEX
  5
1B9
  8
LAYER_1
 10
23.8130288029831
 20
623.003069021412
 30
0.0
  0
VERTEX
  5
1BA
  8
LAYER_1
 10
24.10132648682193
 20
623.0578709464089
 30
0.0
  0
VERTEX
  5
1BB
  8
LAYER_1
 10
24.40090553689024
 20
623.097834458855
 30
0.0
  0
VERTEX
  5
1BC
  8
LAYER_1
 10
24.71184499957835
 20
623.1222978323499
 30
0.0
  0
VERTEX
  5
1BD
  8
LAYER_1
 10
25.03422392127652
 20
623.1305993404927
 30
0.0
  0
VERTEX
  5
1BE
  8
LAYER_1
 10
25.00501022188428
 20
627.0426525741657
 30
0.0
  0
VERTEX
  5
1BF
  8
LAYER_1
 10
25.35033253268708
 20
627.3445331541857
 30
0.0
  0
VERTEX
  5
1C0
  8
LAYER_1
 10
25.68052418229348
 20
627.6541572927193
 30
0.0
  0
VERTEX
  5
1C1
  8
LAYER_1
 10
25.99585844821317
 20
627.9710377687559
 30
0.0
  0
VERTEX
  5
1C2
  8
LAYER_1
 10
26.29660860795582
 20
628.2946873612841
 30
0.0
  0
VERTEX
  5
1C3
  8
LAYER_1
 10
26.58304793903108
 20
628.6246188492933
 30
0.0
  0
VERTEX
  5
1C4
  8
LAYER_1
 10
26.85544971894865
 20
628.9603450117722
 30
0.0
  0
VERTEX
  5
1C5
  8
LAYER_1
 10
27.11408722521817
 20
629.3013786277102
 30
0.0
  0
VERTEX
  5
1C6
  8
LAYER_1
 10
27.35923373534933
 20
629.6472324760964
 30
0.0
  0
VERTEX
  5
1C7
  8
LAYER_1
 10
27.59116252685179
 20
629.9974193359196
 30
0.0
  0
VERTEX
  5
1C8
  8
LAYER_1
 10
27.81014687723523
 20
630.351451986169
 30
0.0
  0
VERTEX
  5
1C9
  8
LAYER_1
 10
28.01646006400929
 20
630.7088432058335
 30
0.0
  0
VERTEX
  5
1CA
  8
LAYER_1
 10
28.21037536468369
 20
631.0691057739024
 30
0.0
  0
VERTEX
  5
1CB
  8
LAYER_1
 10
28.39216605676805
 20
631.4317524693645
 30
0.0
  0
VERTEX
  5
1CC
  8
LAYER_1
 10
28.56210541777207
 20
631.7962960712091
 30
0.0
  0
VERTEX
  5
1CD
  8
LAYER_1
 10
28.72046672520543
 20
632.162249358425
 30
0.0
  0
VERTEX
  5
1CE
  8
LAYER_1
 10
28.86752325657774
 20
632.5291251100016
 30
0.0
  0
VERTEX
  5
1CF
  8
LAYER_1
 10
29.00354828939874
 20
632.8964361049276
 30
0.0
  0
VERTEX
  5
1D0
  8
LAYER_1
 10
29.12881510117805
 20
633.2636951221923
 30
0.0
  0
VERTEX
  5
1D1
  8
LAYER_1
 10
29.24359696942537
 20
633.6304149407845
 30
0.0
  0
VERTEX
  5
1D2
  8
LAYER_1
 10
29.34816717165036
 20
633.9961083396935
 30
0.0
  0
VERTEX
  5
1D3
  8
LAYER_1
 10
29.44279898536269
 20
634.3602880979082
 30
0.0
  0
VERTEX
  5
1D4
  8
LAYER_1
 10
29.52776568807202
 20
634.7224669944177
 30
0.0
  0
VERTEX
  5
1D5
  8
LAYER_1
 10
29.60334055728804
 20
635.0821578082112
 30
0.0
  0
VERTEX
  5
1D6
  8
LAYER_1
 10
29.6697968705204
 20
635.4388733182775
 30
0.0
  0
VERTEX
  5
1D7
  8
LAYER_1
 10
29.72740790527878
 20
635.7921263036058
 30
0.0
  0
VERTEX
  5
1D8
  8
LAYER_1
 10
29.77644693907286
 20
636.1414295431853
 30
0.0
  0
VERTEX
  5
1D9
  8
LAYER_1
 10
29.81718724941227
 20
636.4862958160047
 30
0.0
  0
VERTEX
  5
1DA
  8
LAYER_1
 10
29.84990211380673
 20
636.8262379010534
 30
0.0
  0
VERTEX
  5
1DB
  8
LAYER_1
 10
29.89234861479939
 20
637.4894006237944
 30
0.0
  0
VERTEX
  5
1DC
  8
LAYER_1
 10
29.90597266212819
 20
638.1270199433206
 30
0.0
  0
VERTEX
  5
1DD
  8
LAYER_1
 10
29.89312463836983
 20
638.7656888450479
 30
0.0
  0
VERTEX
  5
1DE
  8
LAYER_1
 10
29.85300164221533
 20
639.4317223775595
 30
0.0
  0
VERTEX
  5
1DF
  8
LAYER_1
 10
29.7830599679135
 20
640.1208058675195
 30
0.0
  0
VERTEX
  5
1E0
  8
LAYER_1
 10
29.7361122184101
 20
640.4726430111251
 30
0.0
  0
VERTEX
  5
1E1
  8
LAYER_1
 10
29.68075590971318
 20
640.8286246415918
 30
0.0
  0
VERTEX
  5
1E2
  8
LAYER_1
 10
29.61667307860385
 20
641.1882114247525
 30
0.0
  0
VERTEX
  5
1E3
  8
LAYER_1
 10
29.5435457618632
 20
641.5508640264404
 30
0.0
  0
VERTEX
  5
1E4
  8
LAYER_1
 10
29.46105599627235
 20
641.9160431124883
 30
0.0
  0
VERTEX
  5
1E5
  8
LAYER_1
 10
29.3688858186124
 20
642.2832093487293
 30
0.0
  0
VERTEX
  5
1E6
  8
LAYER_1
 10
29.26671726566444
 20
642.6518234009964
 30
0.0
  0
VERTEX
  5
1E7
  8
LAYER_1
 10
29.15423237420958
 20
643.0213459351224
 30
0.0
  0
VERTEX
  5
1E8
  8
LAYER_1
 10
29.03111318102894
 20
643.3912376169407
 30
0.0
  0
VERTEX
  5
1E9
  8
LAYER_1
 10
28.89704172290359
 20
643.7609591122839
 30
0.0
  0
VERTEX
  5
1EA
  8
LAYER_1
 10
28.75170003661468
 20
644.1299710869853
 30
0.0
  0
VERTEX
  5
1EB
  8
LAYER_1
 10
28.59477015894328
 20
644.4977342068776
 30
0.0
  0
VERTEX
  5
1EC
  8
LAYER_1
 10
28.4259341266705
 20
644.863709137794
 30
0.0
  0
VERTEX
  5
1ED
  8
LAYER_1
 10
28.24487397657744
 20
645.2273565455675
 30
0.0
  0
VERTEX
  5
1EE
  8
LAYER_1
 10
28.05127174544522
 20
645.588137096031
 30
0.0
  0
VERTEX
  5
1EF
  8
LAYER_1
 10
27.84480947005493
 20
645.9455114550177
 30
0.0
  0
VERTEX
  5
1F0
  8
LAYER_1
 10
27.62516918718767
 20
646.2989402883603
 30
0.0
  0
VERTEX
  5
1F1
  8
LAYER_1
 10
27.39203293362456
 20
646.6478842618922
 30
0.0
  0
VERTEX
  5
1F2
  8
LAYER_1
 10
27.1450827461467
 20
646.9918040414459
 30
0.0
  0
VERTEX
  5
1F3
  8
LAYER_1
 10
26.88400066153517
 20
647.3301602928547
 30
0.0
  0
VERTEX
  5
1F4
  8
LAYER_1
 10
26.6084687165711
 20
647.6624136819515
 30
0.0
  0
VERTEX
  5
1F5
  8
LAYER_1
 10
26.31816894803559
 20
647.9880248745694
 30
0.0
  0
VERTEX
  5
1F6
  8
LAYER_1
 10
26.01278339270974
 20
648.3064545365412
 30
0.0
  0
VERTEX
  5
1F7
  8
LAYER_1
 10
25.69199408737465
 20
648.6171633337001
 30
0.0
  0
VERTEX
  5
1F8
  8
LAYER_1
 10
25.35548306881142
 20
648.9196119318791
 30
0.0
  0
VERTEX
  5
1F9
  8
LAYER_1
 10
25.00293237380117
 20
649.213260996911
 30
0.0
  0
VERTEX
  5
1FA
  8
LAYER_1
 10
25.00000000004169
 20
653.1308288122669
 30
0.0
  0
VERTEX
  5
1FB
  8
LAYER_1
 10
24.72134166027779
 20
653.1390357068781
 30
0.0
  0
VERTEX
  5
1FC
  8
LAYER_1
 10
24.44818018377114
 20
653.1629933709963
 30
0.0
  0
VERTEX
  5
1FD
  8
LAYER_1
 10
24.18098588469927
 20
653.2017072750494
 30
0.0
  0
VERTEX
  5
1FE
  8
LAYER_1
 10
23.9202290772397
 20
653.2541828894649
 30
0.0
  0
VERTEX
  5
1FF
  8
LAYER_1
 10
23.66638007556999
 20
653.3194256846701
 30
0.0
  0
VERTEX
  5
200
  8
LAYER_1
 10
23.41990919386767
 20
653.3964411310928
 30
0.0
  0
VERTEX
  5
201
  8
LAYER_1
 10
23.18128674631026
 20
653.4842346991604
 30
0.0
  0
VERTEX
  5
202
  8
LAYER_1
 10
22.95098304707533
 20
653.5818118593006
 30
0.0
  0
VERTEX
  5
203
  8
LAYER_1
 10
22.7294684103404
 20
653.6881780819406
 30
0.0
  0
VERTEX
  5
204
  8
LAYER_1
 10
22.517213150283
 20
653.8023388375082
 30
0.0
  0
VERTEX
  5
205
  8
LAYER_1
 10
22.31468758108068
 20
653.923299596431
 30
0.0
  0
VERTEX
  5
206
  8
LAYER_1
 10
22.12236201691097
 20
654.0500658291362
 30
0.0
  0
VERTEX
  5
207
  8
LAYER_1
 10
21.9407067719514
 20
654.1816430060517
 30
0.0
  0
VERTEX
  5
208
  8
LAYER_1
 10
21.77019216037954
 20
654.3170365976048
 30
0.0
  0
VERTEX
  5
209
  8
LAYER_1
 10
21.61128849637288
 20
654.4552520742232
 30
0.0
  0
VERTEX
  5
20A
  8
LAYER_1
 10
21.46446609410899
 20
654.5952949063342
 30
0.0
  0
VERTEX
  5
20B
  8
LAYER_1
 10
21.32722488667233
 20
654.7444348373967
 30
0.0
  0
VERTEX
  5
20C
  8
LAYER_1
 10
21.19666718416411
 20
654.9096730801195
 30
0.0
  0
VERTEX
  5
20D
  8
LAYER_1
 10
21.07266686628704
 20
655.0896123088057
 30
0.0
  0
VERTEX
  5
20E
  8
LAYER_1
 10
20.95509781274382
 20
655.2828551977585
 30
0.0
  0
VERTEX
  5
20F
  8
LAYER_1
 10
20.84383390323708
 20
655.4880044212807
 30
0.0
  0
VERTEX
  5
210
  8
LAYER_1
 10
20.73874901746957
 20
655.7036626536751
 30
0.0
  0
VERTEX
  5
211
  8
LAYER_1
 10
20.63971703514395
 20
655.9284325692452
 30
0.0
  0
VERTEX
  5
212
  8
LAYER_1
 10
20.54661183596289
 20
656.1609168422935
 30
0.0
  0
VERTEX
  5
213
  8
LAYER_1
 10
20.37767730584528
 20
656.6434391580378
 30
0.0
  0
VERTEX
  5
214
  8
LAYER_1
 10
20.23093646473822
 20
657.1400509953321
 30
0.0
  0
VERTEX
  5
215
  8
LAYER_1
 10
20.1053803502632
 20
657.6395737486005
 30
0.0
  0
VERTEX
  5
216
  8
LAYER_1
 10
20.00000000004172
 20
658.1308288122669
 30
0.0
  0
VERTEX
  5
217
  8
LAYER_1
 10
15.81044913458821
 20
682.0
 30
0.0
  0
SEQEND
  5
218
  8
LAYER_1
  0
ENDSEC
  0
EOF
